0
SECTION
2
HEADER
9
$INSUNITS
70
4
9
$ACADVER
1
AC1014
9
$HANDSEED
5
FFFF
0
ENDSEC
0
SECTION
2
TABLES
0
TABLE
2
VPORT
5
8
100
AcDbSymbolTable
0
ENDTAB
0
TABLE
2
LTYPE
5
5
100
AcDbSymbolTable
0
LTYPE
5
14
100
AcDbSymbolTableRecord
100
AcDbLinetypeTableRecord
2
BYBLOCK
70
0
0
LTYPE
5
15
100
AcDbSymbolTableRecord
100
AcDbLinetypeTableRecord
2
BYLAYER
70
0
0
LTYPE
5
16
100
AcDbSymbolTableRecord
100
AcDbLinetypeTableRecord
2
DASHED
70
0
3
Dashed __ __ __ __ __ __ __ __ __ __ __ __ __ _
72
65
73
2
40
0.75
49
0.5
74
0
49
-0.25
74
0
0
ENDTAB
0
TABLE
2
LAYER
5
2
100
AcDbSymbolTable
70
2
0
LAYER
5
50
100
AcDbSymbolTableRecord
100
AcDbLayerTableRecord
2
0
70
0
62
7
6
CONTINUOUS
0
ENDTAB
0
TABLE
2
STYLE
5
3
100
AcDbSymbolTable
70
1
0
STYLE
5
11
100
AcDbSymbolTableRecord
100
AcDbTextStyleTableRecord
2
STANDARD
70
0
0
ENDTAB
0
TABLE
2
VIEW
5
6
100
AcDbSymbolTable
70
0
0
ENDTAB
0
TABLE
2
UCS
5
7
100
AcDbSymbolTable
70
0
0
ENDTAB
0
TABLE
2
APPID
5
9
100
AcDbSymbolTable
70
2
0
APPID
5
12
100
AcDbSymbolTableRecord
100
AcDbRegAppTableRecord
2
ACAD
70
0
0
ENDTAB
0
TABLE
2
DIMSTYLE
5
A
100
AcDbSymbolTable
70
1
0
ENDTAB
0
TABLE
2
BLOCK_RECORD
5
1
100
AcDbSymbolTable
70
1
0
BLOCK_RECORD
5
1F
100
AcDbSymbolTableRecord
100
AcDbBlockTableRecord
2
*MODEL_SPACE
0
BLOCK_RECORD
5
1B
100
AcDbSymbolTableRecord
100
AcDbBlockTableRecord
2
*PAPER_SPACE
0
ENDTAB
0
ENDSEC
0
SECTION
2
BLOCKS
0
BLOCK
5
20
100
AcDbEntity
100
AcDbBlockBegin
2
*MODEL_SPACE
0
ENDBLK
5
21
100
AcDbEntity
100
AcDbBlockEnd
0
BLOCK
5
1C
100
AcDbEntity
100
AcDbBlockBegin
2
*PAPER_SPACE
0
ENDBLK
5
1D
100
AcDbEntity
100
AcDbBlockEnd
0
ENDSEC
0
SECTION
2
ENTITIES
0
LWPOLYLINE
5
100
100
AcDbEntity
8
OUTER_PROFILES
100
AcDbPolyline
90
24
70
1
43
0.0
10
-4.9999999999999716
20
24.852389342116929
42
0.41421356237309503
10
-9.9999999999999716
20
29.852389342116929
10
-12.699999999999971
20
29.852389342116929
42
-0.4142135623730947
10
-16.499999999999972
20
33.652389342116926
10
-16.499999999999972
20
37.611681485637973
10
-20.499999999999972
20
37.611681485637973
42
-0.99999999999999989
10
-20.499999999999972
20
39.611681485637973
10
-16.499999999999972
20
39.611681485637973
10
-16.499999999999982
20
43.570973629159013
42
-0.41421356237309503
10
-12.699999999999974
20
47.370973629159025
10
-11.199999999999973
20
47.37097362915901
42
0.41421356237309498
10
-4.9999999999999734
20
53.570973629159013
10
-4.9999999999999734
20
63.4895579162011
42
-0.41421356237309576
10
-1.1999999999999744
20
67.289557916201105
10
80.800000000000068
20
67.289557916201105
42
-0.41421356237309231
10
84.600000000000051
20
63.4895579162011
10
84.600000000000051
20
53.570973629159013
42
0.41421356237309503
10
90.80000000000004
20
47.370973629159025
10
92.300000000000011
20
47.370973629159032
42
-0.41421356237309576
10
96.100000000000051
20
43.570973629159013
10
96.100000000000023
20
4.999999999999992
42
-0.41421356237309481
10
91.100000000000023
20
-4.4408920985006262e-15
10
1.1102230246251563e-15
20
-3.8857805861880479e-15
42
-0.41421356237309509
10
-5
20
4.9999999999999956
0
LWPOLYLINE
5
101
100
AcDbEntity
8
INTERIOR_PROFILES
100
AcDbPolyline
90
12
70
1
43
0.0
10
90.300000000000026
20
33.249778838256169
10
90.300000000000011
20
42.299108093395823
42
0.41421356237309503
10
89.800000000000026
20
42.799108093395823
10
86.80000000000004
20
42.799108093395823
42
0.41421356237307944
10
86.30000000000004
20
42.299108093395823
10
86.30000000000004
20
31.629561463753504
42
-0.72714831237028343
10
81.30000000000004
20
43.973584133019784
10
81.300000000000068
20
34.924254877880131
42
0.41421356237309764
10
81.800000000000054
20
34.424254877880131
10
84.800000000000026
20
34.424254877880124
42
0.41421356237309243
10
85.300000000000026
20
34.924254877880124
10
85.300000000000026
20
45.593801507522443
42
-0.72714831237028343
0
CIRCLE
5
102
100
AcDbEntity
8
INTERIOR_PROFILES
100
AcDbCircle
10
-5.0499999999999989
20
6.0000000000002052
30
0
40
1.7500000000000004
210
0
220
0
230
-1
0
LWPOLYLINE
5
103
100
AcDbEntity
8
INTERIOR_PROFILES
100
AcDbPolyline
90
12
70
1
43
0.0
10
74.800000000000054
20
62.217692380437917
42
-0.41421356237309503
10
75.300000000000054
20
62.71769238043791
10
78.300000000000011
20
62.71769238043791
42
-0.41421356237310025
10
78.800000000000026
20
62.21769238043791
10
78.80000000000004
20
53.168363125298242
42
0.72714831237028332
10
73.800000000000026
20
65.512385794564537
10
73.800000000000011
20
54.842839164922225
42
-0.41421356237309503
10
73.300000000000011
20
54.342839164922225
10
70.30000000000004
20
54.342839164922232
42
-0.41421356237309503
10
69.800000000000054
20
54.842839164922239
10
69.800000000000054
20
63.892168420061864
42
0.72714831237028377
10
74.80000000000004
20
51.548145750795591
0
CIRCLE
5
104
100
AcDbEntity
8
INTERIOR_PROFILES
100
AcDbCircle
10
-32.049999999999997
20
6.0000000000002096
30
0
40
1.7499999999999982
210
0
220
0
230
-1
0
CIRCLE
5
105
100
AcDbEntity
8
INTERIOR_PROFILES
100
AcDbCircle
10
-59.050000000000018
20
6.0000000000002096
30
0
40
1.7499999999999982
210
0
220
0
230
-1
0
CIRCLE
5
106
100
AcDbEntity
8
INTERIOR_PROFILES
100
AcDbCircle
10
-86.050000000000026
20
6.0000000000002052
30
0
40
1.7500000000000071
210
0
220
0
230
-1
0
LWPOLYLINE
5
107
100
AcDbEntity
8
INTERIOR_PROFILES
100
AcDbPolyline
90
12
70
1
43
0.0
10
62.300000000000033
20
34.924254877880131
42
-0.41421356237308721
10
61.800000000000054
20
34.424254877880131
10
58.800000000000033
20
34.424254877880131
42
-0.41421356237309764
10
58.300000000000026
20
34.924254877880124
10
58.30000000000004
20
43.973584133019791
42
0.72714831237028343
10
63.30000000000004
20
31.629561463753504
10
63.300000000000026
20
42.299108093395823
42
-0.41421356237309503
10
63.800000000000033
20
42.799108093395816
10
66.800000000000026
20
42.799108093395816
42
-0.41421356237310025
10
67.30000000000004
20
42.299108093395816
10
67.300000000000054
20
33.249778838256184
42
0.72714831237028121
10
62.30000000000004
20
45.593801507522443
0
LWPOLYLINE
5
108
100
AcDbEntity
8
INTERIOR_PROFILES
100
AcDbPolyline
90
12
70
1
43
0.0
10
47.30000000000004
20
54.342839164922225
42
-0.41421356237309503
10
46.800000000000054
20
54.842839164922232
10
46.800000000000033
20
63.89216842006185
42
0.7271483123702821
10
51.800000000000033
20
51.548145750795591
10
51.80000000000004
20
62.217692380437917
42
-0.41421356237309503
10
52.300000000000047
20
62.71769238043791
10
55.300000000000047
20
62.71769238043791
42
-0.41421356237309503
10
55.80000000000004
20
62.217692380437903
10
55.80000000000004
20
53.168363125298264
42
0.7271483123702821
10
50.80000000000004
20
65.512385794564523
10
50.800000000000061
20
54.842839164922232
42
-0.41421356237309503
10
50.300000000000075
20
54.342839164922225
0
LWPOLYLINE
5
109
100
AcDbEntity
8
INTERIOR_PROFILES
100
AcDbPolyline
90
12
70
1
43
0.0
10
1.3000000000000478
20
54.342839164922232
10
4.3000000000000504
20
54.342839164922239
42
0.41421356237309503
10
4.8000000000000504
20
54.842839164922239
10
4.8000000000000274
20
65.512385794564523
42
-0.72714831237028277
10
9.8000000000000309
20
53.168363125298256
10
9.8000000000000256
20
62.217692380437917
42
0.4142135623730957
10
9.3000000000000274
20
62.717692380437917
10
6.3000000000000256
20
62.717692380437917
42
0.41421356237309503
10
5.8000000000000256
20
62.217692380437917
10
5.8000000000000274
20
51.548145750795591
42
-0.72714831237028243
10
0.80000000000002569
20
63.892168420061857
10
0.80000000000004068
20
54.842839164922232
42
0.41421356237308982
0
LWPOLYLINE
5
110
100
AcDbEntity
8
INTERIOR_PROFILES
100
AcDbPolyline
90
12
70
1
43
0.0
10
43.800000000000033
20
42.799108093395816
42
-0.41421356237309503
10
44.300000000000033
20
42.299108093395816
10
44.300000000000033
20
33.249778838256169
42
0.72714831237028243
10
39.300000000000033
20
45.593801507522443
10
39.300000000000033
20
34.924254877880131
42
-0.41421356237309503
10
38.800000000000033
20
34.424254877880131
10
35.800000000000026
20
34.424254877880131
42
-0.41421356237309503
10
35.300000000000026
20
34.924254877880124
10
35.300000000000026
20
43.973584133019784
42
0.72714831237028266
10
40.300000000000026
20
31.629561463753504
10
40.30000000000004
20
42.299108093395823
42
-0.41421356237309503
10
40.800000000000047
20
42.799108093395816
0
LWPOLYLINE
5
111
100
AcDbEntity
8
INTERIOR_PROFILES
100
AcDbPolyline
90
12
70
1
43
0.0
10
21.300000000000026
20
33.249778838256169
10
21.300000000000033
20
42.299108093395816
42
0.41421356237309503
10
20.800000000000036
20
42.799108093395816
10
17.800000000000029
20
42.799108093395816
42
0.41421356237309503
10
17.300000000000029
20
42.299108093395816
10
17.300000000000033
20
31.629561463753504
42
-0.72714831237028266
10
12.300000000000031
20
43.973584133019784
10
12.300000000000036
20
34.924254877880124
42
0.41421356237309503
10
12.800000000000033
20
34.424254877880131
10
15.800000000000034
20
34.424254877880131
42
0.4142135623730937
10
16.300000000000033
20
34.924254877880124
10
16.300000000000033
20
45.593801507522443
42
-0.7271483123702831
0
LWPOLYLINE
5
112
100
AcDbEntity
8
INTERIOR_PROFILES
100
AcDbPolyline
90
12
70
1
43
0.0
10
28.800000000000033
20
62.217692380437917
42
-0.41421356237309503
10
29.300000000000033
20
62.717692380437917
10
32.300000000000033
20
62.717692380437917
42
-0.41421356237309503
10
32.800000000000026
20
62.217692380437917
10
32.800000000000033
20
53.168363125298242
42
0.72714831237028243
10
27.800000000000029
20
65.512385794564537
10
27.80000000000004
20
54.842839164922232
42
-0.41421356237310025
10
27.30000000000004
20
54.342839164922225
10
24.300000000000033
20
54.342839164922225
42
-0.41421356237310025
10
23.800000000000033
20
54.842839164922232
10
23.800000000000033
20
63.892168420061864
42
0.72714831237028343
10
28.800000000000033
20
51.548145750795591
0
LWPOLYLINE
5
113
100
AcDbEntity
8
INTERIOR_PROFILES
100
AcDbPolyline
90
12
70
1
43
0.0
10
-2.1999999999999749
20
42.799108093395816
42
-0.41421356237309492
10
-1.6999999999999751
20
42.299108093395816
10
-1.6999999999999704
20
33.249778838256169
42
0.72714831237028266
10
-6.6999999999999726
20
45.593801507522443
10
-6.6999999999999655
20
34.924254877880131
42
-0.41421356237309437
10
-7.1999999999999655
20
34.424254877880131
10
-10.199999999999967
20
34.424254877880131
42
-0.41421356237309764
10
-10.699999999999967
20
34.924254877880131
10
-10.699999999999969
20
43.973584133019784
42
0.72714831237028299
10
-5.6999999999999718
20
31.629561463753504
10
-5.6999999999999762
20
42.299108093395816
42
-0.41421356237309503
10
-5.1999999999999762
20
42.799108093395816
0
ENDSEC
0
SECTION
2
OBJECTS
0
DICTIONARY
5
C
100
AcDbDictionary
3
ACAD_GROUP
350
D
3
ACAD_MLINESTYLE
350
17
0
DICTIONARY
5
D
100
AcDbDictionary
0
DICTIONARY
5
1A
330
C
100
AcDbDictionary
0
DICTIONARY
5
17
100
AcDbDictionary
0
ENDSEC
0
EOF
