0
SECTION
2
HEADER
9
$INSUNITS
70
4
9
$ACADVER
1
AC1014
9
$HANDSEED
5
FFFF
0
ENDSEC
0
SECTION
2
TABLES
0
TABLE
2
VPORT
5
8
100
AcDbSymbolTable
0
ENDTAB
0
TABLE
2
LTYPE
5
5
100
AcDbSymbolTable
0
LTYPE
5
14
100
AcDbSymbolTableRecord
100
AcDbLinetypeTableRecord
2
BYBLOCK
70
0
0
LTYPE
5
15
100
AcDbSymbolTableRecord
100
AcDbLinetypeTableRecord
2
BYLAYER
70
0
0
LTYPE
5
16
100
AcDbSymbolTableRecord
100
AcDbLinetypeTableRecord
2
DASHED
70
0
3
Dashed __ __ __ __ __ __ __ __ __ __ __ __ __ _
72
65
73
2
40
0.75
49
0.5
74
0
49
-0.25
74
0
0
ENDTAB
0
TABLE
2
LAYER
5
2
100
AcDbSymbolTable
70
2
0
LAYER
5
50
100
AcDbSymbolTableRecord
100
AcDbLayerTableRecord
2
0
70
0
62
7
6
CONTINUOUS
0
ENDTAB
0
TABLE
2
STYLE
5
3
100
AcDbSymbolTable
70
1
0
STYLE
5
11
100
AcDbSymbolTableRecord
100
AcDbTextStyleTableRecord
2
STANDARD
70
0
0
ENDTAB
0
TABLE
2
VIEW
5
6
100
AcDbSymbolTable
70
0
0
ENDTAB
0
TABLE
2
UCS
5
7
100
AcDbSymbolTable
70
0
0
ENDTAB
0
TABLE
2
APPID
5
9
100
AcDbSymbolTable
70
2
0
APPID
5
12
100
AcDbSymbolTableRecord
100
AcDbRegAppTableRecord
2
ACAD
70
0
0
ENDTAB
0
TABLE
2
DIMSTYLE
5
A
100
AcDbSymbolTable
70
1
0
ENDTAB
0
TABLE
2
BLOCK_RECORD
5
1
100
AcDbSymbolTable
70
1
0
BLOCK_RECORD
5
1F
100
AcDbSymbolTableRecord
100
AcDbBlockTableRecord
2
*MODEL_SPACE
0
BLOCK_RECORD
5
1B
100
AcDbSymbolTableRecord
100
AcDbBlockTableRecord
2
*PAPER_SPACE
0
ENDTAB
0
ENDSEC
0
SECTION
2
BLOCKS
0
BLOCK
5
20
100
AcDbEntity
100
AcDbBlockBegin
2
*MODEL_SPACE
0
ENDBLK
5
21
100
AcDbEntity
100
AcDbBlockEnd
0
BLOCK
5
1C
100
AcDbEntity
100
AcDbBlockBegin
2
*PAPER_SPACE
0
ENDBLK
5
1D
100
AcDbEntity
100
AcDbBlockEnd
0
ENDSEC
0
SECTION
2
ENTITIES
0
LWPOLYLINE
5
100
100
AcDbEntity
8
OUTER_PROFILES
100
AcDbPolyline
90
20
70
1
43
0.0
10
92.299999999999983
20
67.289557916201105
42
-0.41421356237309453
10
97.299999999999983
20
62.289557916201105
10
97.300000000000026
20
23.718584287042084
42
0.41421356237309503
10
103.50000000000001
20
17.518584287042096
10
105
20
17.518584287042099
42
-0.4142135623730942
10
108.80000000000003
20
13.718584287042086
10
108.80000000000001
20
3.8000000000000034
42
-0.41421356237309287
10
105.00000000000001
20
0
10
1.0542479300606126e-15
20
1.1102230246251565e-15
42
-0.41421356237309498
10
-3.8000000000000012
20
3.8000000000000007
10
-3.8000000000000012
20
7.7592921435210451
10
-7.7999999999999989
20
7.7592921435210451
42
-0.99999999999999989
10
-7.8000000000000016
20
9.7592921435210442
10
-3.8000000000000012
20
9.759292143521046
10
-3.8000000000000043
20
13.718584287042086
42
-0.41421356237309498
10
-2.2204460492503131e-15
20
17.518584287042088
10
1.4999999999999989
20
17.518584287042088
42
0.41421356237309503
10
7.6999999999999975
20
23.718584287042084
10
7.6999999999999975
20
62.289557916201097
42
-0.41421356237309492
10
12.699999999999996
20
67.289557916201105
0
LWPOLYLINE
5
101
100
AcDbEntity
8
INTERIOR_PROFILES
100
AcDbPolyline
90
12
70
1
43
0.0
10
91
20
32.865303038320981
42
-0.41421356237309503
10
91.5
20
32.365303038320981
10
91.5
20
23.315973783181324
42
0.72714831237028343
10
86.5
20
35.659996452447601
10
86.5
20
24.990449822805306
42
-0.41421356237309764
10
86
20
24.490449822805303
10
83.000000000000028
20
24.49044982280531
42
-0.41421356237309503
10
82.500000000000014
20
24.990449822805306
10
82.500000000000014
20
34.039779077944942
42
0.72714831237028343
10
87.500000000000014
20
21.695756408678658
10
87.500000000000014
20
32.365303038320981
42
-0.41421356237309503
10
88.000000000000028
20
32.865303038320981
0
LWPOLYLINE
5
102
100
AcDbEntity
8
INTERIOR_PROFILES
100
AcDbPolyline
90
12
70
1
43
0.0
10
94.000000000000028
20
14.121194790902848
10
94.000000000000028
20
5.071865535763199
42
0.4142135623730957
10
94.500000000000028
20
4.5718655357631981
10
97.5
20
4.5718655357631928
42
0.4142135623730937
10
98
20
5.0718655357631981
10
98
20
15.741412165405514
42
-0.72714831237028366
10
103
20
3.3973894961392355
10
103
20
12.446718751278894
42
0.4142135623730937
10
102.5
20
12.946718751278892
10
99.500000000000028
20
12.946718751278896
42
0.4142135623730937
10
99.000000000000028
20
12.44671875127889
10
99.000000000000028
20
1.7771721216365721
42
-0.72714831237028366
0
LWPOLYLINE
5
103
100
AcDbEntity
8
INTERIOR_PROFILES
100
AcDbPolyline
90
12
70
1
43
0.0
10
80.000000000000014
20
3.3973894961392395
10
80
20
12.446718751278887
42
0.41421356237310025
10
79.5
20
12.946718751278887
10
76.5
20
12.946718751278885
42
0.4142135623730937
10
76
20
12.446718751278889
10
76
20
1.7771721216365721
42
-0.72714831237028299
10
71
20
14.121194790902845
10
71
20
5.0718655357631981
42
0.41421356237309892
10
71.5
20
4.5718655357632008
10
74.500000000000014
20
4.5718655357632034
42
0.41421356237309176
10
75
20
5.0718655357632052
10
75.000000000000014
20
15.741412165405514
42
-0.72714831237028144
0
LWPOLYLINE
5
104
100
AcDbEntity
8
INTERIOR_PROFILES
100
AcDbPolyline
90
12
70
1
43
0.0
10
22
20
32.865303038320988
10
18.999999999999996
20
32.865303038320988
42
0.41421356237309503
10
18.499999999999996
20
32.365303038320988
10
18.5
20
21.695756408678658
42
-0.72714831237028266
10
13.499999999999998
20
34.039779077944942
10
13.500000000000021
20
24.990449822805303
42
0.41421356237309764
10
14.000000000000023
20
24.490449822805303
10
17.000000000000021
20
24.490449822805314
42
0.41421356237309503
10
17.500000000000021
20
24.99044982280531
10
17.5
20
35.659996452447601
42
-0.72714831237028266
10
22.5
20
23.315973783181331
10
22.5
20
32.365303038320988
42
0.41421356237309503
0
LWPOLYLINE
5
105
100
AcDbEntity
8
INTERIOR_PROFILES
100
AcDbPolyline
90
12
70
1
43
0.0
10
63.500000000000028
20
24.990449822805299
42
-0.41421356237309503
10
63.000000000000036
20
24.490449822805299
10
60.000000000000014
20
24.490449822805296
42
-0.41421356237309503
10
59.500000000000021
20
24.990449822805296
10
59.499999999999993
20
34.039779077944942
42
0.72714831237028243
10
64.5
20
21.695756408678658
10
64.500000000000014
20
32.365303038320981
42
-0.41421356237309503
10
65.000000000000014
20
32.865303038320981
10
68
20
32.865303038320981
42
-0.41421356237309503
10
68.5
20
32.365303038320981
10
68.5
20
23.315973783181331
42
0.72714831237028243
10
63.500000000000007
20
35.659996452447601
0
LWPOLYLINE
5
106
100
AcDbEntity
8
INTERIOR_PROFILES
100
AcDbPolyline
90
12
70
1
43
0.0
10
56.500000000000014
20
12.946718751278887
42
-0.41421356237309115
10
57
20
12.446718751278885
10
57
20
3.3973894961392448
42
0.7271483123702821
10
52
20
15.741412165405514
10
52
20
5.0718655357632034
42
-0.41421356237309698
10
51.5
20
4.5718655357631999
10
48.499999999999986
20
4.571865535763199
42
-0.41421356237308982
10
48
20
5.071865535763199
10
48
20
14.121194790902852
42
0.72714831237028266
10
53
20
1.7771721216365721
10
53.000000000000007
20
12.446718751278889
42
-0.4142135623730937
10
53.500000000000007
20
12.946718751278887
0
LWPOLYLINE
5
107
100
AcDbEntity
8
INTERIOR_PROFILES
100
AcDbPolyline
90
12
70
1
43
0.0
10
30
20
12.446718751278887
10
30
20
1.7771721216365732
42
-0.72714831237028266
10
25
20
14.121194790902846
10
25.000000000000007
20
5.0718655357631981
42
0.41421356237309503
10
25.500000000000007
20
4.5718655357631981
10
28.500000000000007
20
4.5718655357631999
42
0.41421356237309503
10
29.000000000000004
20
5.0718655357631981
10
29
20
15.741412165405514
42
-0.72714831237028332
10
34
20
3.3973894961392377
10
34
20
12.446718751278889
42
0.4142135623730937
10
33.500000000000007
20
12.946718751278887
10
30.5
20
12.946718751278885
42
0.41421356237309503
0
LWPOLYLINE
5
108
100
AcDbEntity
8
INTERIOR_PROFILES
100
AcDbPolyline
90
12
70
1
43
0.0
10
5.9999999999999982
20
15.741412165405515
42
-0.72714831237028266
10
11
20
3.3973894961392439
10
10.999999999999996
20
12.446718751278887
42
0.41421356237309503
10
10.499999999999996
20
12.946718751278887
10
7.4999999999999956
20
12.946718751278887
42
0.41421356237309631
10
6.9999999999999947
20
12.446718751278885
10
7
20
1.7771721216365743
42
-0.72714831237028266
10
1.9999999999999973
20
14.121194790902845
10
2.0000000000000044
20
5.0718655357631999
42
0.41421356237309537
10
2.5000000000000049
20
4.5718655357632008
10
5.5000000000000053
20
4.5718655357632008
42
0.4142135623730957
10
6.0000000000000053
20
5.0718655357632025
0
LWPOLYLINE
5
109
100
AcDbEntity
8
INTERIOR_PROFILES
100
AcDbPolyline
90
12
70
1
43
0.0
10
45
20
32.865303038320988
10
42
20
32.865303038320988
42
0.41421356237309503
10
41.5
20
32.365303038320988
10
41.5
20
21.695756408678662
42
-0.72714831237028332
10
36.5
20
34.039779077944935
10
36.5
20
24.990449822805303
42
0.41421356237309503
10
37
20
24.490449822805303
10
40.000000000000007
20
24.490449822805296
42
0.41421356237309503
10
40.500000000000007
20
24.990449822805296
10
40.5
20
35.659996452447601
42
-0.72714831237028243
10
45.5
20
23.315973783181331
10
45.5
20
32.365303038320988
42
0.41421356237309503
0
CIRCLE
5
110
100
AcDbEntity
8
INTERIOR_PROFILES
100
AcDbCircle
10
-38.999999999999972
20
61.289557916201332
30
0
40
1.7499999999999982
210
0
220
0
230
-1
0
CIRCLE
5
111
100
AcDbEntity
8
INTERIOR_PROFILES
100
AcDbCircle
10
-65.999999999999972
20
61.289557916201332
30
0
40
1.7499999999999982
210
0
220
0
230
-1
0
CIRCLE
5
112
100
AcDbEntity
8
INTERIOR_PROFILES
100
AcDbCircle
10
-90.999999999999972
20
61.289557916201332
30
0
40
1.7499999999999893
210
0
220
0
230
-1
0
CIRCLE
5
113
100
AcDbEntity
8
INTERIOR_PROFILES
100
AcDbCircle
10
-13.99999999999997
20
61.289557916201332
30
0
40
1.7500000000000004
210
0
220
0
230
-1
0
ENDSEC
0
SECTION
2
OBJECTS
0
DICTIONARY
5
C
100
AcDbDictionary
3
ACAD_GROUP
350
D
3
ACAD_MLINESTYLE
350
17
0
DICTIONARY
5
D
100
AcDbDictionary
0
DICTIONARY
5
1A
330
C
100
AcDbDictionary
0
DICTIONARY
5
17
100
AcDbDictionary
0
ENDSEC
0
EOF
