0
SECTION
2
HEADER
9
$INSUNITS
70
4
9
$ACADVER
1
AC1014
9
$HANDSEED
5
FFFF
0
ENDSEC
0
SECTION
2
TABLES
0
TABLE
2
VPORT
5
8
100
AcDbSymbolTable
0
ENDTAB
0
TABLE
2
LTYPE
5
5
100
AcDbSymbolTable
0
LTYPE
5
14
100
AcDbSymbolTableRecord
100
AcDbLinetypeTableRecord
2
BYBLOCK
70
0
0
LTYPE
5
15
100
AcDbSymbolTableRecord
100
AcDbLinetypeTableRecord
2
BYLAYER
70
0
0
LTYPE
5
16
100
AcDbSymbolTableRecord
100
AcDbLinetypeTableRecord
2
DASHED
70
0
3
Dashed __ __ __ __ __ __ __ __ __ __ __ __ __ _
72
65
73
2
40
0.75
49
0.5
74
0
49
-0.25
74
0
0
ENDTAB
0
TABLE
2
LAYER
5
2
100
AcDbSymbolTable
70
2
0
LAYER
5
50
100
AcDbSymbolTableRecord
100
AcDbLayerTableRecord
2
0
70
0
62
7
6
CONTINUOUS
0
ENDTAB
0
TABLE
2
STYLE
5
3
100
AcDbSymbolTable
70
1
0
STYLE
5
11
100
AcDbSymbolTableRecord
100
AcDbTextStyleTableRecord
2
STANDARD
70
0
0
ENDTAB
0
TABLE
2
VIEW
5
6
100
AcDbSymbolTable
70
0
0
ENDTAB
0
TABLE
2
UCS
5
7
100
AcDbSymbolTable
70
0
0
ENDTAB
0
TABLE
2
APPID
5
9
100
AcDbSymbolTable
70
2
0
APPID
5
12
100
AcDbSymbolTableRecord
100
AcDbRegAppTableRecord
2
ACAD
70
0
0
ENDTAB
0
TABLE
2
DIMSTYLE
5
A
100
AcDbSymbolTable
70
1
0
ENDTAB
0
TABLE
2
BLOCK_RECORD
5
1
100
AcDbSymbolTable
70
1
0
BLOCK_RECORD
5
1F
100
AcDbSymbolTableRecord
100
AcDbBlockTableRecord
2
*MODEL_SPACE
0
BLOCK_RECORD
5
1B
100
AcDbSymbolTableRecord
100
AcDbBlockTableRecord
2
*PAPER_SPACE
0
ENDTAB
0
ENDSEC
0
SECTION
2
BLOCKS
0
BLOCK
5
20
100
AcDbEntity
100
AcDbBlockBegin
2
*MODEL_SPACE
0
ENDBLK
5
21
100
AcDbEntity
100
AcDbBlockEnd
0
BLOCK
5
1C
100
AcDbEntity
100
AcDbBlockBegin
2
*PAPER_SPACE
0
ENDBLK
5
1D
100
AcDbEntity
100
AcDbBlockEnd
0
ENDSEC
0
SECTION
2
ENTITIES
0
LWPOLYLINE
5
100
100
AcDbEntity
8
OUTER_PROFILES
100
AcDbPolyline
90
36
70
1
43
0.0
10
-3.7999999999999989
20
9.7592921435210389
10
-7.8000000000000025
20
9.7592921435210425
42
0.99999999999999989
10
-7.8000000000000025
20
7.7592921435210425
10
-3.7999999999999989
20
7.759292143521046
10
-3.7999999999999989
20
3.7999999999999989
42
0.41421356237309509
10
6.3329106736962554e-16
20
-2.2204460492503131e-15
10
105.00000000000001
20
0
42
0.41421356237309304
10
108.80000000000001
20
3.7999999999999989
10
108.80000000000003
20
13.718584287042086
42
0.41421356237309437
10
105
20
17.518584287042103
10
103.50000000000001
20
17.518584287042096
42
-0.41421356237309503
10
97.300000000000026
20
23.718584287042084
10
97.30000000000004
20
33.637
42
-0.41421356237309503
10
103.50000000000003
20
39.836999999999996
10
105.00000000000001
20
39.836999999999996
42
0.41421356237309304
10
108.80000000000001
20
43.637000000000008
10
108.80000000000003
20
53.55558428704208
42
0.41421356237309437
10
105
20
57.355584287042099
10
103.50000000000001
20
57.355584287042092
42
-0.41421356237309503
10
97.300000000000026
20
63.55558428704208
10
97.300000000000026
20
73.474168574084175
42
0.41421356237309165
10
93.500000000000057
20
77.274168574084172
10
11.500000000000004
20
77.274168574084172
42
0.41421356237309626
10
7.7000000000000028
20
73.474168574084175
10
7.7000000000000002
20
63.55558428704208
42
-0.41421356237309503
10
1.4999999999999993
20
57.355584287042085
10
-2.7755575615628914e-16
20
57.355584287042085
42
0.41421356237309503
10
-3.8000000000000012
20
53.55558428704208
10
-3.7999999999999989
20
43.637
42
0.41421356237309476
10
-3.2080805978334146e-15
20
39.836999999999996
10
1.4999999999999989
20
39.836999999999996
42
-0.41421356237309503
10
7.7000000000000002
20
33.637
10
7.7000000000000002
20
23.718584287042084
42
-0.41421356237309503
10
1.4999999999999993
20
17.518584287042085
10
0
20
17.518584287042085
42
0.41421356237309503
10
-3.8000000000000012
20
13.718584287042086
0
LWPOLYLINE
5
101
100
AcDbEntity
8
INTERIOR_PROFILES
100
AcDbPolyline
90
12
70
1
43
0.0
10
87.500000000000014
20
72.202303038320991
42
-0.41421356237308982
10
88.000000000000028
20
72.702303038320991
10
91
20
72.702303038320991
42
-0.41421356237308982
10
91.5
20
72.202303038320991
10
91.499999999999986
20
63.152973783181316
42
0.72714831237028377
10
86.5
20
75.49699645244759
10
86.5
20
64.827449822805306
42
-0.41421356237309503
10
86
20
64.327449822805306
10
83
20
64.327449822805306
42
-0.41421356237310025
10
82.5
20
64.82744982280532
10
82.5
20
73.876779077944931
42
0.72714831237028266
10
87.500000000000014
20
61.532756408678665
0
LWPOLYLINE
5
102
100
AcDbEntity
8
INTERIOR_PROFILES
100
AcDbPolyline
90
12
70
1
43
0.0
10
99.000000000000028
20
52.283718751278897
42
-0.41421356237307944
10
99.500000000000014
20
52.783718751278883
10
102.5
20
52.783718751278883
42
-0.41421356237308982
10
103
20
52.283718751278897
10
103
20
43.234389496139222
42
0.72714831237028366
10
98
20
55.578412165405517
10
97.999999999999986
20
44.908865535763177
42
-0.41421356237308982
10
97.499999999999986
20
44.408865535763184
10
94.500000000000014
20
44.408865535763191
42
-0.41421356237308982
10
94
20
44.908865535763177
10
94.000000000000043
20
53.958194790902851
42
0.72714831237028377
10
99.000000000000028
20
41.614172121636571
0
LWPOLYLINE
5
103
100
AcDbEntity
8
INTERIOR_PROFILES
100
AcDbPolyline
90
12
70
1
43
0.0
10
25.500000000000007
20
44.408865535763198
10
28.500000000000007
20
44.408865535763191
42
0.41421356237309503
10
29.000000000000004
20
44.908865535763184
10
29.000000000000004
20
55.578412165405517
42
-0.72714831237028243
10
34
20
43.234389496139237
10
34
20
52.283718751278883
42
0.41421356237309503
10
33.500000000000007
20
52.783718751278883
10
30.5
20
52.783718751278883
42
0.41421356237309503
10
30
20
52.283718751278883
10
30
20
41.614172121636571
42
-0.72714831237028266
10
25
20
53.958194790902844
10
25.000000000000018
20
44.908865535763184
42
0.41421356237309503
0
LWPOLYLINE
5
104
100
AcDbEntity
8
INTERIOR_PROFILES
100
AcDbPolyline
90
12
70
1
43
0.0
10
18.5
20
72.202303038320991
42
-0.41421356237309503
10
19
20
72.702303038320991
10
22
20
72.702303038320991
42
-0.41421356237308982
10
22.5
20
72.202303038320991
10
22.500000000000004
20
63.152973783181316
42
0.72714831237028277
10
17.5
20
75.496996452447604
10
17.500000000000021
20
64.827449822805264
42
-0.41421356237309503
10
17.000000000000021
20
64.327449822805264
10
14.00000000000002
20
64.327449822805264
42
-0.41421356237309631
10
13.500000000000016
20
64.827449822805249
10
13.5
20
73.876779077944931
42
0.72714831237028266
10
18.5
20
61.532756408678665
0
LWPOLYLINE
5
105
100
AcDbEntity
8
INTERIOR_PROFILES
100
AcDbPolyline
90
12
70
1
43
0.0
10
75.000000000000014
20
44.908865535763205
42
-0.41421356237309503
10
74.500000000000014
20
44.408865535763205
10
71.500000000000014
20
44.408865535763205
42
-0.41421356237309503
10
71
20
44.908865535763198
10
71
20
53.958194790902844
42
0.72714831237028177
10
76
20
41.614172121636571
10
76
20
52.283718751278897
42
-0.41421356237309503
10
76.500000000000014
20
52.783718751278883
10
79.5
20
52.783718751278883
42
-0.41421356237309503
10
80.000000000000014
20
52.283718751278897
10
79.999999999999986
20
43.234389496139229
42
0.72714831237028377
10
75
20
55.57841216540551
0
LWPOLYLINE
5
106
100
AcDbEntity
8
INTERIOR_PROFILES
100
AcDbPolyline
90
12
70
1
43
0.0
10
41.5
20
72.202303038320991
42
-0.41421356237309503
10
42
20
72.702303038320991
10
45
20
72.702303038320991
42
-0.41421356237309503
10
45.5
20
72.202303038320991
10
45.500000000000007
20
63.152973783181324
42
0.72714831237028155
10
40.500000000000007
20
75.496996452447604
10
40.500000000000007
20
64.827449822805292
42
-0.41421356237310025
10
40.000000000000007
20
64.327449822805278
10
37.000000000000007
20
64.327449822805292
42
-0.41421356237310025
10
36.500000000000007
20
64.827449822805306
10
36.5
20
73.876779077944931
42
0.72714831237028277
10
41.499999999999993
20
61.532756408678665
0
LWPOLYLINE
5
107
100
AcDbEntity
8
INTERIOR_PROFILES
100
AcDbPolyline
90
12
70
1
43
0.0
10
63.500000000000043
20
64.827449822805292
42
-0.41421356237309503
10
63.00000000000005
20
64.327449822805278
10
60.000000000000028
20
64.327449822805278
42
-0.41421356237309503
10
59.500000000000036
20
64.827449822805278
10
59.500000000000021
20
73.876779077944946
42
0.72714831237028377
10
64.500000000000014
20
61.532756408678665
10
64.500000000000014
20
72.202303038321006
42
-0.41421356237309503
10
65.000000000000014
20
72.702303038320991
10
68.000000000000014
20
72.702303038320991
42
-0.41421356237309503
10
68.5
20
72.202303038320991
10
68.500000000000028
20
63.152973783181324
42
0.72714831237028121
10
63.500000000000014
20
75.496996452447604
0
LWPOLYLINE
5
108
100
AcDbEntity
8
INTERIOR_PROFILES
100
AcDbPolyline
90
12
70
1
43
0.0
10
56.5
20
52.783718751278883
42
-0.41421356237309503
10
57
20
52.283718751278883
10
57
20
43.234389496139244
42
0.7271483123702821
10
52
20
55.57841216540551
10
52
20
44.908865535763184
42
-0.41421356237309503
10
51.5
20
44.408865535763191
10
48.5
20
44.408865535763191
42
-0.41421356237309503
10
48
20
44.908865535763184
10
48
20
53.958194790902844
42
0.72714831237028277
10
53.000000000000007
20
41.614172121636571
10
53.000000000000014
20
52.283718751278897
42
-0.41421356237309503
10
53.500000000000021
20
52.783718751278883
0
LWPOLYLINE
5
109
100
AcDbEntity
8
INTERIOR_PROFILES
100
AcDbPolyline
90
12
70
1
43
0.0
10
6.9999999999999973
20
52.283718751278883
42
-0.41421356237309437
10
7.4999999999999964
20
52.783718751278883
10
10.499999999999998
20
52.783718751278883
42
-0.41421356237309503
10
10.999999999999998
20
52.283718751278883
10
10.999999999999998
20
43.234389496139237
42
0.72714831237028266
10
5.9999999999999982
20
55.57841216540551
10
6.0000000000000036
20
44.908865535763184
42
-0.41421356237309437
10
5.5000000000000036
20
44.408865535763191
10
2.5000000000000018
20
44.408865535763191
42
-0.4142135623730947
10
2.0000000000000022
20
44.908865535763184
10
2.0000000000000102
20
53.958194790902844
42
0.72714831237028332
10
7
20
41.614172121636571
0
LWPOLYLINE
5
110
100
AcDbEntity
8
INTERIOR_PROFILES
100
AcDbPolyline
90
12
70
1
43
0.0
10
82.5
20
34.039779077944935
10
82.5
20
24.99044982280531
42
0.41421356237309503
10
83
20
24.490449822805314
10
86
20
24.490449822805299
42
0.41421356237309764
10
86.5
20
24.99044982280531
10
86.5
20
35.659996452447601
42
-0.72714831237028343
10
91.5
20
23.315973783181324
10
91.499999999999986
20
32.365303038320981
42
0.41421356237309503
10
91
20
32.865303038320981
10
88.000000000000028
20
32.865303038320988
42
0.41421356237309503
10
87.500000000000014
20
32.365303038320981
10
87.500000000000014
20
21.695756408678655
42
-0.72714831237028277
0
LWPOLYLINE
5
111
100
AcDbEntity
8
INTERIOR_PROFILES
100
AcDbPolyline
90
12
70
1
43
0.0
10
94.500000000000028
20
4.5718655357631999
10
97.5
20
4.5718655357631999
42
0.4142135623730937
10
98
20
5.0718655357632052
10
98
20
15.741412165405517
42
-0.72714831237028366
10
103
20
3.3973894961392341
10
103
20
12.446718751278887
42
0.41421356237309503
10
102.5
20
12.946718751278887
10
99.500000000000028
20
12.946718751278894
42
0.4142135623730937
10
99.000000000000028
20
12.446718751278889
10
99.000000000000028
20
1.7771721216365666
42
-0.72714831237028366
10
94.000000000000028
20
14.121194790902852
10
94.000000000000028
20
5.0718655357631981
42
0.41421356237309503
0
LWPOLYLINE
5
112
100
AcDbEntity
8
INTERIOR_PROFILES
100
AcDbPolyline
90
12
70
1
43
0.0
10
79.5
20
12.946718751278887
42
-0.41421356237309892
10
80.000000000000014
20
12.446718751278889
10
80
20
3.3973894961392266
42
0.72714831237028366
10
75
20
15.741412165405517
10
75.000000000000014
20
5.0718655357632105
42
-0.41421356237309176
10
74.500000000000028
20
4.571865535763207
10
71.500000000000014
20
4.571865535763207
42
-0.41421356237309892
10
71
20
5.0718655357632052
10
70.999999999999986
20
14.121194790902841
42
0.72714831237028121
10
76
20
1.7771721216365677
10
76
20
12.446718751278889
42
-0.4142135623730937
10
76.5
20
12.946718751278887
0
LWPOLYLINE
5
113
100
AcDbEntity
8
INTERIOR_PROFILES
100
AcDbPolyline
90
12
70
1
43
0.0
10
18.5
20
21.695756408678658
42
-0.72714831237028299
10
13.500000000000004
20
34.039779077944935
10
13.500000000000018
20
24.990449822805303
42
0.41421356237309631
10
14.00000000000002
20
24.490449822805303
10
17.000000000000021
20
24.490449822805303
42
0.41421356237309503
10
17.500000000000021
20
24.990449822805306
10
17.5
20
35.659996452447601
42
-0.72714831237028266
10
22.5
20
23.315973783181327
10
22.499999999999996
20
32.365303038320988
42
0.41421356237309503
10
21.999999999999996
20
32.865303038320988
10
19
20
32.865303038320988
42
0.41421356237309503
10
18.5
20
32.365303038320988
0
LWPOLYLINE
5
114
100
AcDbEntity
8
INTERIOR_PROFILES
100
AcDbPolyline
90
12
70
1
43
0.0
10
68
20
32.865303038320981
42
-0.41421356237309503
10
68.5
20
32.365303038320981
10
68.500000000000014
20
23.315973783181331
42
0.72714831237028144
10
63.500000000000014
20
35.659996452447601
10
63.500000000000043
20
24.990449822805296
42
-0.41421356237309503
10
63.000000000000043
20
24.490449822805296
10
60.000000000000014
20
24.490449822805292
42
-0.41421356237309503
10
59.500000000000028
20
24.990449822805289
10
59.500000000000014
20
34.039779077944942
42
0.72714831237028343
10
64.500000000000014
20
21.695756408678655
10
64.500000000000014
20
32.365303038320981
42
-0.41421356237309503
10
65.000000000000014
20
32.865303038320981
0
LWPOLYLINE
5
115
100
AcDbEntity
8
INTERIOR_PROFILES
100
AcDbPolyline
90
12
70
1
43
0.0
10
56.500000000000014
20
12.946718751278887
42
-0.41421356237309115
10
57
20
12.446718751278885
10
57.000000000000014
20
3.3973894961392364
42
0.72714831237028188
10
52.000000000000014
20
15.741412165405517
10
52
20
5.0718655357631928
42
-0.41421356237309176
10
51.500000000000014
20
4.5718655357631892
10
48.499999999999986
20
4.5718655357631892
42
-0.41421356237308982
10
48.000000000000007
20
5.0718655357631892
10
47.999999999999986
20
14.121194790902845
42
0.72714831237028243
10
53.000000000000007
20
1.7771721216365677
10
53.000000000000014
20
12.446718751278889
42
-0.4142135623730937
10
53.500000000000014
20
12.946718751278885
0
LWPOLYLINE
5
116
100
AcDbEntity
8
INTERIOR_PROFILES
100
AcDbPolyline
90
12
70
1
43
0.0
10
29.000000000000007
20
5.0718655357631892
10
29.000000000000004
20
15.741412165405517
42
-0.72714831237028243
10
34
20
3.3973894961392404
10
34
20
12.446718751278887
42
0.41421356237309503
10
33.500000000000007
20
12.946718751278887
10
30.5
20
12.946718751278885
42
0.4142135623730937
10
30
20
12.446718751278889
10
30
20
1.777172121636571
42
-0.72714831237028266
10
25
20
14.121194790902846
10
25.000000000000007
20
5.0718655357631892
42
0.41421356237309503
10
25.500000000000007
20
4.5718655357631892
10
28.500000000000007
20
4.5718655357631865
42
0.41421356237309503
0
LWPOLYLINE
5
117
100
AcDbEntity
8
INTERIOR_PROFILES
100
AcDbPolyline
90
12
70
1
43
0.0
10
6.9999999999999973
20
12.446718751278876
42
-0.41421356237309631
10
7.4999999999999982
20
12.946718751278878
10
10.499999999999998
20
12.946718751278878
42
-0.41421356237309503
10
10.999999999999998
20
12.446718751278878
10
11.000000000000005
20
3.397389496139235
42
0.72714831237028243
10
6.0000000000000009
20
15.741412165405517
10
6.0000000000000036
20
5.0718655357631981
42
-0.41421356237309503
10
5.5000000000000027
20
4.5718655357631999
10
2.5000000000000027
20
4.5718655357631981
42
-0.41421356237309537
10
2.0000000000000018
20
5.0718655357631981
10
1.9999999999999991
20
14.121194790902853
42
0.72714831237028299
10
7
20
1.7771721216365677
0
LWPOLYLINE
5
118
100
AcDbEntity
8
INTERIOR_PROFILES
100
AcDbPolyline
90
12
70
1
43
0.0
10
40.5
20
35.659996452447601
42
-0.72714831237028243
10
45.5
20
23.315973783181327
10
45.5
20
32.365303038320988
42
0.41421356237309503
10
45
20
32.865303038320988
10
42
20
32.865303038320988
42
0.41421356237309503
10
41.5
20
32.365303038320988
10
41.5
20
21.695756408678655
42
-0.7271483123702831
10
36.499999999999993
20
34.039779077944935
10
36.500000000000014
20
24.990449822805296
42
0.41421356237309503
10
37.000000000000014
20
24.490449822805296
10
40.000000000000014
20
24.490449822805289
42
0.41421356237309503
10
40.500000000000014
20
24.990449822805285
0
ENDSEC
0
SECTION
2
OBJECTS
0
DICTIONARY
5
C
100
AcDbDictionary
3
ACAD_GROUP
350
D
3
ACAD_MLINESTYLE
350
17
0
DICTIONARY
5
D
100
AcDbDictionary
0
DICTIONARY
5
1A
330
C
100
AcDbDictionary
0
DICTIONARY
5
17
100
AcDbDictionary
0
ENDSEC
0
EOF
