0
SECTION
2
HEADER
9
$INSUNITS
70
4
9
$ACADVER
1
AC1014
9
$HANDSEED
5
FFFF
0
ENDSEC
0
SECTION
2
TABLES
0
TABLE
2
VPORT
5
8
100
AcDbSymbolTable
0
ENDTAB
0
TABLE
2
LTYPE
5
5
100
AcDbSymbolTable
0
LTYPE
5
14
100
AcDbSymbolTableRecord
100
AcDbLinetypeTableRecord
2
BYBLOCK
70
0
0
LTYPE
5
15
100
AcDbSymbolTableRecord
100
AcDbLinetypeTableRecord
2
BYLAYER
70
0
0
LTYPE
5
16
100
AcDbSymbolTableRecord
100
AcDbLinetypeTableRecord
2
DASHED
70
0
3
Dashed __ __ __ __ __ __ __ __ __ __ __ __ __ _
72
65
73
2
40
0.75
49
0.5
74
0
49
-0.25
74
0
0
ENDTAB
0
TABLE
2
LAYER
5
2
100
AcDbSymbolTable
70
2
0
LAYER
5
50
100
AcDbSymbolTableRecord
100
AcDbLayerTableRecord
2
0
70
0
62
7
6
CONTINUOUS
0
ENDTAB
0
TABLE
2
STYLE
5
3
100
AcDbSymbolTable
70
1
0
STYLE
5
11
100
AcDbSymbolTableRecord
100
AcDbTextStyleTableRecord
2
STANDARD
70
0
0
ENDTAB
0
TABLE
2
VIEW
5
6
100
AcDbSymbolTable
70
0
0
ENDTAB
0
TABLE
2
UCS
5
7
100
AcDbSymbolTable
70
0
0
ENDTAB
0
TABLE
2
APPID
5
9
100
AcDbSymbolTable
70
2
0
APPID
5
12
100
AcDbSymbolTableRecord
100
AcDbRegAppTableRecord
2
ACAD
70
0
0
ENDTAB
0
TABLE
2
DIMSTYLE
5
A
100
AcDbSymbolTable
70
1
0
ENDTAB
0
TABLE
2
BLOCK_RECORD
5
1
100
AcDbSymbolTable
70
1
0
BLOCK_RECORD
5
1F
100
AcDbSymbolTableRecord
100
AcDbBlockTableRecord
2
*MODEL_SPACE
0
BLOCK_RECORD
5
1B
100
AcDbSymbolTableRecord
100
AcDbBlockTableRecord
2
*PAPER_SPACE
0
ENDTAB
0
ENDSEC
0
SECTION
2
BLOCKS
0
BLOCK
5
20
100
AcDbEntity
100
AcDbBlockBegin
2
*MODEL_SPACE
0
ENDBLK
5
21
100
AcDbEntity
100
AcDbBlockEnd
0
BLOCK
5
1C
100
AcDbEntity
100
AcDbBlockBegin
2
*PAPER_SPACE
0
ENDBLK
5
1D
100
AcDbEntity
100
AcDbBlockEnd
0
ENDSEC
0
SECTION
2
ENTITIES
0
LWPOLYLINE
5
100
100
AcDbEntity
8
OUTER_PROFILES
100
AcDbPolyline
90
20
70
1
43
0.0
10
198.40000000000006
20
7.7592921435209892
10
202.40000000000006
20
7.7592921435209883
42
0.99999999999999989
10
202.40000000000006
20
9.7592921435209874
10
198.40000000000003
20
9.7592921435209909
10
198.40000000000006
20
13.718584287042063
42
0.41421356237309398
10
194.60000000000005
20
17.518584287042074
10
193.10000000000005
20
17.518584287042067
42
-0.41421356237309503
10
186.90000000000003
20
23.718584287042059
10
186.90000000000001
20
58.289557916201069
42
0.41421356237309503
10
181.90000000000001
20
63.289557916201069
10
-10.29999999999994
20
63.289557916201097
42
0.41421356237309503
10
-15.29999999999994
20
58.289557916201097
10
-15.299999999999976
20
23.718584287042081
42
0.41421356237309398
10
-11.49999999999995
20
19.918584287042069
10
-9.9999999999999609
20
19.918584287042073
42
-0.4142135623730947
10
-3.7999999999999723
20
13.718584287042086
10
-3.7999999999999723
20
3.7999999999999909
42
0.41421356237309159
10
-1.6537683633582848e-15
20
-8.8817841970012523e-15
10
194.60000000000002
20
-1.9984014443252818e-14
42
0.41421356237309559
10
198.40000000000006
20
3.7999999999999652
0
LWPOLYLINE
5
101
100
AcDbEntity
8
INTERIOR_PROFILES
100
AcDbPolyline
90
12
70
1
43
0.0
10
176.10000000000002
20
24.99044982280526
42
-0.41421356237311063
10
175.59999999999999
20
24.490449822805267
10
172.60000000000008
20
24.490449822805278
42
-0.41421356237311063
10
172.10000000000005
20
24.990449822805267
10
172.10000000000005
20
34.039779077944921
42
0.72714831237028343
10
177.10000000000005
20
21.695756408678637
10
177.10000000000005
20
32.365303038320945
42
-0.41421356237307944
10
177.60000000000002
20
32.865303038320953
10
180.60000000000005
20
32.86530303832096
42
-0.41421356237307944
10
181.10000000000002
20
32.365303038320953
10
181.10000000000002
20
23.315973783181295
42
0.72714831237028343
10
176.10000000000002
20
35.659996452447579
0
LWPOLYLINE
5
102
100
AcDbEntity
8
INTERIOR_PROFILES
100
AcDbPolyline
90
12
70
1
43
0.0
10
169.10000000000008
20
12.94671875127886
42
-0.41421356237307944
10
169.60000000000005
20
12.446718751278851
10
169.60000000000008
20
3.3973894961392364
42
0.72714831237028121
10
164.60000000000005
20
15.741412165405491
10
164.60000000000005
20
5.071865535763167
42
-0.41421356237310997
10
164.09999999999999
20
4.5718655357631768
10
161.09999999999999
20
4.5718655357631786
42
-0.41421356237308071
10
160.60000000000002
20
5.0718655357631892
10
160.60000000000002
20
14.121194790902816
42
0.72714831237028021
10
165.60000000000002
20
1.7771721216365477
10
165.60000000000002
20
12.446718751278848
42
-0.41421356237308071
10
166.09999999999999
20
12.946718751278858
0
LWPOLYLINE
5
103
100
AcDbEntity
8
INTERIOR_PROFILES
100
AcDbPolyline
90
12
70
1
43
0.0
10
188.60000000000002
20
12.446718751278851
42
-0.41421356237308071
10
189.09999999999999
20
12.946718751278862
10
192.10000000000005
20
12.946718751278862
42
-0.41421356237308071
10
192.60000000000002
20
12.446718751278851
10
192.60000000000005
20
3.3973894961392324
42
0.72714831237027988
10
187.60000000000005
20
15.741412165405491
10
187.60000000000002
20
5.0718655357631963
42
-0.41421356237310347
10
187.10000000000002
20
4.571865535763183
10
184.09999999999999
20
4.5718655357631741
42
-0.41421356237308526
10
183.60000000000002
20
5.0718655357631928
10
183.60000000000002
20
14.121194790902834
42
0.72714831237028366
10
188.60000000000002
20
1.7771721216365499
0
LWPOLYLINE
5
104
100
AcDbEntity
8
INTERIOR_PROFILES
100
AcDbPolyline
90
12
70
1
43
0.0
10
153.10000000000008
20
24.990449822805274
42
-0.41421356237309503
10
152.60000000000008
20
24.490449822805278
10
149.60000000000005
20
24.490449822805278
42
-0.41421356237309503
10
149.10000000000005
20
24.990449822805274
10
149.10000000000005
20
34.039779077944921
42
0.72714831237028243
10
154.10000000000002
20
21.695756408678633
10
154.10000000000002
20
32.36530303832096
42
-0.41421356237309503
10
154.60000000000005
20
32.86530303832096
10
157.60000000000005
20
32.86530303832096
42
-0.41421356237309503
10
158.10000000000005
20
32.36530303832096
10
158.10000000000005
20
23.315973783181292
42
0.72714831237028266
10
153.10000000000005
20
35.659996452447579
0
LWPOLYLINE
5
105
100
AcDbEntity
8
INTERIOR_PROFILES
100
AcDbPolyline
90
12
70
1
43
0.0
10
111.60000000000005
20
32.86530303832096
42
-0.41421356237309503
10
112.10000000000007
20
32.36530303832096
10
112.10000000000007
20
23.315973783181313
42
0.72714831237028243
10
107.10000000000005
20
35.659996452447572
10
107.10000000000007
20
24.990449822805282
42
-0.41421356237309503
10
106.60000000000005
20
24.490449822805282
10
103.60000000000005
20
24.490449822805274
42
-0.41421356237309503
10
103.10000000000004
20
24.990449822805271
10
103.10000000000005
20
34.0397790779449
42
0.72714831237028144
10
108.10000000000004
20
21.695756408678641
10
108.10000000000004
20
32.36530303832096
42
-0.41421356237309503
10
108.60000000000005
20
32.86530303832096
0
LWPOLYLINE
5
106
100
AcDbEntity
8
INTERIOR_PROFILES
100
AcDbPolyline
90
12
70
1
43
0.0
10
126.60000000000004
20
24.490449822805267
42
-0.41421356237309503
10
126.10000000000002
20
24.990449822805267
10
126.10000000000005
20
34.039779077944921
42
0.72714831237028343
10
131.10000000000005
20
21.695756408678637
10
131.10000000000002
20
32.36530303832096
42
-0.41421356237309503
10
131.60000000000002
20
32.865303038320953
10
134.60000000000005
20
32.865303038320953
42
-0.41421356237309503
10
135.10000000000005
20
32.36530303832096
10
135.10000000000002
20
23.315973783181292
42
0.72714831237028266
10
130.10000000000005
20
35.659996452447579
10
130.10000000000005
20
24.990449822805267
42
-0.41421356237309503
10
129.60000000000005
20
24.490449822805267
0
LWPOLYLINE
5
107
100
AcDbEntity
8
INTERIOR_PROFILES
100
AcDbPolyline
90
12
70
1
43
0.0
10
141.60000000000005
20
5.0718655357631812
42
-0.41421356237309631
10
141.10000000000005
20
4.5718655357631794
10
138.10000000000005
20
4.5718655357631803
42
-0.41421356237309631
10
137.60000000000005
20
5.0718655357631821
10
137.60000000000005
20
14.121194790902829
42
0.72714831237028266
10
142.60000000000002
20
1.7771721216365455
10
142.60000000000005
20
12.446718751278873
42
-0.4142135623730937
10
143.10000000000005
20
12.946718751278873
10
146.10000000000005
20
12.946718751278873
42
-0.41421356237309631
10
146.60000000000005
20
12.446718751278869
10
146.60000000000005
20
3.3973894961392199
42
0.72714831237028243
10
141.60000000000002
20
15.741412165405491
0
LWPOLYLINE
5
108
100
AcDbEntity
8
INTERIOR_PROFILES
100
AcDbPolyline
90
12
70
1
43
0.0
10
123.10000000000005
20
12.946718751278851
42
-0.41421356237309503
10
123.60000000000007
20
12.446718751278851
10
123.60000000000005
20
3.3973894961392235
42
0.72714831237028144
10
118.60000000000005
20
15.741412165405491
10
118.60000000000007
20
5.0718655357631723
42
-0.41421356237308982
10
118.10000000000005
20
4.5718655357631741
10
115.10000000000005
20
4.5718655357631741
42
-0.41421356237309503
10
114.60000000000005
20
5.0718655357631732
10
114.60000000000005
20
14.121194790902834
42
0.72714831237028366
10
119.60000000000005
20
1.7771721216365499
10
119.60000000000005
20
12.446718751278855
42
-0.4142135623730937
10
120.10000000000005
20
12.946718751278855
0
LWPOLYLINE
5
109
100
AcDbEntity
8
INTERIOR_PROFILES
100
AcDbPolyline
90
12
70
1
43
0.0
10
95.600000000000051
20
5.0718655357631812
42
-0.41421356237310025
10
95.100000000000051
20
4.5718655357631723
10
92.100000000000051
20
4.5718655357631741
42
-0.41421356237309243
10
91.600000000000037
20
5.0718655357631697
10
91.600000000000037
20
14.121194790902813
42
0.72714831237028121
10
96.600000000000037
20
1.7771721216365499
10
96.600000000000023
20
12.44671875127886
42
-0.41421356237309631
10
97.100000000000023
20
12.946718751278862
10
100.10000000000002
20
12.946718751278862
42
-0.41421356237309503
10
100.60000000000002
20
12.446718751278862
10
100.60000000000004
20
3.3973894961392088
42
0.72714831237028366
10
95.600000000000037
20
15.741412165405491
0
LWPOLYLINE
5
110
100
AcDbEntity
8
INTERIOR_PROFILES
100
AcDbPolyline
90
12
70
1
43
0.0
10
-8.9999999999999503
20
24.490449822805278
42
-0.41421356237309503
10
-9.4999999999999503
20
24.990449822805274
10
-9.4999999999999769
20
34.039779077944921
42
0.7271483123702801
10
-4.4999999999999956
20
21.695756408678655
10
-4.4999999999999503
20
32.365303038320967
42
-0.41421356237309764
10
-3.9999999999999503
20
32.865303038320967
10
-0.9999999999999799
20
32.86530303832096
42
-0.41421356237309581
10
-0.49999999999997868
20
32.365303038320967
10
-0.49999999999998879
20
23.315973783181299
42
0.72714831237028688
10
-5.5000000000000071
20
35.659996452447594
10
-5.4999999999999787
20
24.990449822805274
42
-0.4142135623730957
10
-5.9999999999999796
20
24.490449822805278
0
LWPOLYLINE
5
111
100
AcDbEntity
8
INTERIOR_PROFILES
100
AcDbPolyline
90
12
70
1
43
0.0
10
2.5000000000000351
20
4.5718655357631839
42
-0.41421356237309404
10
2.0000000000000355
20
5.0718655357631821
10
2.0000000000000235
20
14.121194790902843
42
0.72714831237028332
10
7.0000000000000284
20
1.7771721216365632
10
7.0000000000000355
20
12.446718751278867
42
-0.41421356237309437
10
7.5000000000000364
20
12.946718751278866
10
10.500000000000007
20
12.94671875127886
42
-0.41421356237309631
10
11.000000000000014
20
12.446718751278858
10
11.000000000000036
20
3.3973894961392448
42
0.72714831237028188
10
6.0000000000000142
20
15.741412165405503
10
6.0000000000000071
20
5.0718655357631812
42
-0.41421356237309437
10
5.5000000000000071
20
4.571865535763183
0
LWPOLYLINE
5
112
100
AcDbEntity
8
INTERIOR_PROFILES
100
AcDbPolyline
90
12
70
1
43
0.0
10
33.500000000000014
20
12.946718751278869
42
-0.4142135623730937
10
34.000000000000014
20
12.446718751278871
10
34.000000000000028
20
3.3973894961392248
42
0.72714831237028332
10
29.000000000000021
20
15.741412165405499
10
29.000000000000014
20
5.0718655357631786
42
-0.41421356237309503
10
28.500000000000014
20
4.5718655357631786
10
25.500000000000007
20
4.5718655357631794
42
-0.41421356237309437
10
25.000000000000007
20
5.0718655357631786
10
25.000000000000036
20
14.121194790902843
42
0.72714831237028366
10
30.000000000000036
20
1.777172121636561
10
30.000000000000007
20
12.446718751278866
42
-0.41421356237309115
10
30.500000000000004
20
12.946718751278862
0
LWPOLYLINE
5
113
100
AcDbEntity
8
INTERIOR_PROFILES
100
AcDbPolyline
90
12
70
1
43
0.0
10
36.500000000000021
20
34.039779077944928
10
36.500000000000028
20
24.990449822805274
42
0.41421356237309503
10
37.000000000000028
20
24.490449822805278
10
40.000000000000014
20
24.490449822805278
42
0.41421356237309764
10
40.500000000000036
20
24.990449822805271
10
40.500000000000007
20
35.659996452447587
42
-0.72714831237028221
10
45.500000000000028
20
23.315973783181324
10
45.50000000000005
20
32.36530303832096
42
0.41421356237308982
10
45.000000000000064
20
32.86530303832096
10
42.000000000000014
20
32.86530303832096
42
0.41421356237308721
10
41.500000000000028
20
32.36530303832096
10
41.500000000000021
20
21.695756408678648
42
-0.72714831237028366
0
LWPOLYLINE
5
114
100
AcDbEntity
8
INTERIOR_PROFILES
100
AcDbPolyline
90
12
70
1
43
0.0
10
21.999999999999993
20
32.86530303832096
10
18.999999999999986
20
32.86530303832096
42
0.41421356237309764
10
18.499999999999986
20
32.36530303832096
10
18.500000000000014
20
21.695756408678651
42
-0.72714831237028332
10
13.500000000000011
20
34.039779077944921
10
13.500000000000023
20
24.990449822805274
42
0.41421356237309631
10
14.000000000000023
20
24.490449822805278
10
16.999999999999989
20
24.490449822805278
42
0.41421356237309631
10
17.499999999999993
20
24.990449822805274
10
17.500000000000036
20
35.659996452447594
42
-0.72714831237028021
10
22.500000000000021
20
23.315973783181327
10
22.499999999999993
20
32.36530303832096
42
0.41421356237309503
0
LWPOLYLINE
5
115
100
AcDbEntity
8
INTERIOR_PROFILES
100
AcDbPolyline
90
12
70
1
43
0.0
10
79.500000000000014
20
12.946718751278857
42
-0.41421356237309503
10
80.000000000000014
20
12.446718751278855
10
80.000000000000028
20
3.3973894961392155
42
0.72714831237028366
10
75.000000000000028
20
15.741412165405496
10
75.000000000000043
20
5.0718655357631661
42
-0.41421356237309437
10
74.500000000000043
20
4.5718655357631679
10
71.500000000000043
20
4.5718655357631635
42
-0.4142135623730937
10
71.000000000000043
20
5.0718655357631617
10
71.000000000000028
20
14.12119479090282
42
0.72714831237028144
10
76.000000000000028
20
1.7771721216365544
10
76
20
12.44671875127885
42
-0.41421356237309503
10
76.5
20
12.946718751278851
0
LWPOLYLINE
5
116
100
AcDbEntity
8
INTERIOR_PROFILES
100
AcDbPolyline
90
12
70
1
43
0.0
10
68.000000000000043
20
32.86530303832096
42
-0.41421356237309503
10
68.500000000000043
20
32.36530303832096
10
68.500000000000057
20
23.31597378318131
42
0.72714831237028243
10
63.500000000000028
20
35.659996452447587
10
63.500000000000021
20
24.990449822805271
42
-0.41421356237309503
10
63.000000000000028
20
24.490449822805274
10
60.000000000000014
20
24.490449822805274
42
-0.41421356237309503
10
59.500000000000028
20
24.990449822805271
10
59.500000000000043
20
34.039779077944914
42
0.72714831237028243
10
64.500000000000028
20
21.695756408678648
10
64.500000000000043
20
32.36530303832096
42
-0.41421356237309503
10
65.000000000000028
20
32.86530303832096
0
LWPOLYLINE
5
117
100
AcDbEntity
8
INTERIOR_PROFILES
100
AcDbPolyline
90
12
70
1
43
0.0
10
52.000000000000043
20
5.0718655357631661
10
52.000000000000028
20
15.741412165405499
42
-0.72714831237028377
10
57.000000000000028
20
3.3973894961392186
10
57.000000000000036
20
12.446718751278862
42
0.41421356237309631
10
56.500000000000043
20
12.946718751278866
10
53.50000000000005
20
12.946718751278867
42
0.41421356237309631
10
53.00000000000005
20
12.446718751278867
10
53.000000000000043
20
1.7771721216365577
42
-0.72714831237028221
10
48.000000000000028
20
14.121194790902823
10
48.00000000000005
20
5.0718655357631697
42
0.4142135623730957
10
48.50000000000005
20
4.5718655357631679
10
51.500000000000057
20
4.5718655357631777
42
0.41421356237309437
0
LWPOLYLINE
5
118
100
AcDbEntity
8
INTERIOR_PROFILES
100
AcDbPolyline
90
12
70
1
43
0.0
10
87.500000000000028
20
32.36530303832096
10
87.500000000000028
20
21.695756408678641
42
-0.72714831237028266
10
82.500000000000057
20
34.039779077944921
10
82.500000000000028
20
24.990449822805267
42
0.41421356237309503
10
83.000000000000028
20
24.490449822805267
10
86.000000000000028
20
24.49044982280526
42
0.41421356237309503
10
86.500000000000043
20
24.990449822805267
10
86.500000000000043
20
35.659996452447579
42
-0.72714831237028343
10
91.500000000000043
20
23.315973783181306
10
91.500000000000057
20
32.36530303832096
42
0.41421356237309243
10
91.000000000000057
20
32.865303038320953
10
88.000000000000043
20
32.86530303832096
42
0.41421356237309503
0
ENDSEC
0
SECTION
2
OBJECTS
0
DICTIONARY
5
C
100
AcDbDictionary
3
ACAD_GROUP
350
D
3
ACAD_MLINESTYLE
350
17
0
DICTIONARY
5
D
100
AcDbDictionary
0
DICTIONARY
5
1A
330
C
100
AcDbDictionary
0
DICTIONARY
5
17
100
AcDbDictionary
0
ENDSEC
0
EOF
